<svg width="24" height="16" viewBox="0 0 24 16" fill="none" xmlns="http://www.w3.org/2000/svg">
<path d="M11.8883 13.3809C13.0358 11.913 14.0647 10.6067 15.0849 9.29264C16.7555 7.14043 18.3876 4.95605 20.1038 2.84222C20.8193 1.96093 21.7048 1.21933 22.5258 0.427885C22.8782 0.0879605 23.3318 -0.208818 23.7567 0.194245C24.2285 0.641524 23.9314 1.12968 23.5645 1.50303C19.6152 5.51935 16.9056 10.4912 13.4701 14.9039C12.4576 16.2042 11.605 16.3736 10.3524 15.2726C9.9509 14.9318 9.57452 14.5618 9.22624 14.1655C6.78277 11.2853 4.31587 8.42407 1.94073 5.48696C1.17814 4.54394 0.653047 3.40002 0.0596115 2.32507C-0.0413914 2.14184 -0.000513257 1.65902 0.0819666 1.63037C0.384801 1.52425 0.827767 1.40804 1.04725 1.55554C1.91049 2.13617 2.81778 2.71468 3.5096 3.47872C5.17946 5.32284 6.73313 7.27431 8.34236 9.17485C9.28878 10.2928 10.2541 11.3943 11.2059 12.5076C11.4137 12.7511 11.6015 13.0132 11.8883 13.3809Z" fill="black"/>
</svg>
